<?xml version="1.0" ?><svg id="Layer_1_1_" style="enable-background:new 0 0 64 64;" version="1.1" viewBox="0 0 64 64" xml:space="preserve" xmlns="http://www.w3.org/2000/svg" xmlns:xlink="http://www.w3.org/1999/xlink"><g><text style="font-family:'Montserrat-Regular'; font-size:10px;" transform="matrix(1 0 0 1 -270.3398 -117.0002)"/><text transform="matrix(1 0 0 1 -172.9297 -117.0002)"><tspan style="font-family:'Montserrat-Regular'; font-size:10px;" x="0" y="0"/><tspan style="font-family:'Montserrat-Regular'; font-size:10px;" x="6.82" y="0"/><tspan style="font-family:'Montserrat-Regular'; font-size:10px;" x="2.055" y="12"/><tspan style="font-family:'Montserrat-Regular'; font-size:10px;" x="9.115" y="12"/><tspan style="font-family:'Montserrat-Regular'; font-size:10px;" x="16.314" y="12"/></text><text transform="matrix(1 0 0 1 -185.8047 -21.0002)"><tspan style="font-family:'Montserrat-Regular'; font-size:10px;" x="0" y="0"/><tspan style="font-family:'Montserrat-Regular'; font-size:10px;" x="36.31" y="0"/><tspan style="font-family:'Montserrat-Regular'; font-size:10px;" x="43.51" y="0"/></text><text transform="matrix(1 0 0 1 -91.2751 -117.0002)"><tspan style="font-family:'Montserrat-Regular'; font-size:10px;" x="0" y="0"/><tspan style="font-family:'Montserrat-Regular'; font-size:10px;" x="19.58" y="0"/><tspan style="font-family:'Montserrat-Regular'; font-size:10px;" x="26.9" y="0"/></text><text transform="matrix(1 0 0 1 7.0654 -117.0002)"><tspan style="font-family:'Montserrat-Regular'; font-size:10px;" x="0" y="0"/><tspan style="font-family:'Montserrat-Regular'; font-size:10px;" x="21.21" y="0"/><tspan style="font-family:'Montserrat-Regular'; font-size:10px;" x="28.78" y="0"/></text><text transform="matrix(1 0 0 1 103.4355 -117.0002)"><tspan style="font-family:'Montserrat-Regular'; font-size:10px;" x="0" y="0"/><tspan style="font-family:'Montserrat-Regular'; font-size:10px;" x="0.465" y="12"/><tspan style="font-family:'Montserrat-Regular'; font-size:10px;" x="5.865" y="12"/></text><text transform="matrix(1 0 0 1 201.75 -117.0002)"><tspan style="font-family:'Montserrat-Regular'; font-size:10px;" x="0" y="0"/><tspan style="font-family:'Montserrat-Regular'; font-size:10px;" x="23.25" y="0"/><tspan style="font-family:'Montserrat-Regular'; font-size:10px;" x="30.45" y="0"/></text><text transform="matrix(1 0 0 1 -266.77 -21.0002)"><tspan style="font-family:'Montserrat-Regular'; font-size:10px;" x="0" y="0"/><tspan style="font-family:'Montserrat-Regular'; font-size:10px;" x="-16.564" y="12"/></text><text transform="matrix(1 0 0 1 -99.9497 -21.0002)"><tspan style="font-family:'Montserrat-Regular'; font-size:10px;" x="0" y="0"/><tspan style="font-family:'Montserrat-Regular'; font-size:10px;" x="36.759" y="0"/><tspan style="font-family:'Montserrat-Regular'; font-size:10px;" x="43.959" y="0"/></text><text transform="matrix(1 0 0 1 21.25 -21.0002)"><tspan style="font-family:'Montserrat-Regular'; font-size:10px;" x="0" y="0"/><tspan style="font-family:'Montserrat-Regular'; font-size:10px;" x="7.06" y="0"/><tspan style="font-family:'Montserrat-Regular'; font-size:10px;" x="15.13" y="0"/></text><text style="font-family:'Montserrat-Regular'; font-size:10px;" transform="matrix(1 0 0 1 116.46 -21.0002)"/><text transform="matrix(1 0 0 1 213.6152 -21.0002)"><tspan style="font-family:'Montserrat-Regular'; font-size:10px;" x="0" y="0"/><tspan style="font-family:'Montserrat-Regular'; font-size:10px;" x="5.47" y="0"/></text><text transform="matrix(1 0 0 1 -278.8447 74.9998)"><tspan style="font-family:'Montserrat-Regular'; font-size:10px;" x="0" y="0"/><tspan style="font-family:'Montserrat-Regular'; font-size:10px;" x="14.98" y="0"/><tspan style="font-family:'Montserrat-Regular'; font-size:10px;" x="22.18" y="0"/><tspan style="font-family:'Montserrat-Regular'; font-size:10px;" x="4.645" y="12"/><tspan style="font-family:'Montserrat-Regular'; font-size:10px;" x="12.215" y="12"/></text><text transform="matrix(1 0 0 1 -180.585 74.9998)"><tspan style="font-family:'Montserrat-Regular'; font-size:10px;" x="0" y="0"/><tspan style="font-family:'Montserrat-Regular'; font-size:10px;" x="6.29" y="0"/><tspan style="font-family:'Montserrat-Regular'; font-size:10px;" x="-4.495" y="12"/></text><text transform="matrix(1 0 0 1 -88.4746 74.9998)"><tspan style="font-family:'Montserrat-Regular'; font-size:10px;" x="0" y="0"/><tspan style="font-family:'Montserrat-Regular'; font-size:10px;" x="7.23" y="0"/><tspan style="font-family:'Montserrat-Regular'; font-size:10px;" x="15.05" y="0"/></text><text transform="matrix(1 0 0 1 7.2451 74.9998)"><tspan style="font-family:'Montserrat-Regular'; font-size:10px;" x="0" y="0"/><tspan style="font-family:'Montserrat-Regular'; font-size:10px;" x="13.445" y="12"/></text><text transform="matrix(1 0 0 1 111.3799 74.9998)"><tspan style="font-family:'Montserrat-Regular'; font-size:10px;" x="0" y="0"/><tspan style="font-family:'Montserrat-Regular'; font-size:10px;" x="6.22" y="0"/><tspan style="font-family:'Montserrat-Regular'; font-size:10px;" x="12.51" y="0"/><tspan style="font-family:'Montserrat-Regular'; font-size:10px;" x="19.71" y="0"/><tspan style="font-family:'Montserrat-Regular'; font-size:10px;" x="-6.004" y="12"/></text><text transform="matrix(1 0 0 1 207.4551 74.9998)"><tspan style="font-family:'Montserrat-Regular'; font-size:10px;" x="0" y="0"/><tspan style="font-family:'Montserrat-Regular'; font-size:10px;" x="9.25" y="0"/><tspan style="font-family:'Montserrat-Regular'; font-size:10px;" x="17.07" y="0"/></text><text transform="matrix(1 0 0 1 -275.8896 170.9998)"><tspan style="font-family:'Montserrat-Regular'; font-size:10px;" x="0" y="0"/><tspan style="font-family:'Montserrat-Regular'; font-size:10px;" x="6.73" y="0"/><tspan style="font-family:'Montserrat-Regular'; font-size:10px;" x="12.13" y="0"/><tspan style="font-family:'Montserrat-Regular'; font-size:10px;" x="1.18" y="12"/></text><text style="font-family:'Montserrat-Regular'; font-size:10px;" transform="matrix(1 0 0 1 -177.4346 170.9998)"/><text transform="matrix(1 0 0 1 -81.165 170.9998)"><tspan style="font-family:'Montserrat-Regular'; font-size:10px;" x="0" y="0"/><tspan style="font-family:'Montserrat-Regular'; font-size:10px;" x="14.32" y="0"/><tspan style="font-family:'Montserrat-Regular'; font-size:10px;" x="19.72" y="0"/><tspan style="font-family:'Montserrat-Regular'; font-size:10px;" x="-3.04" y="12"/></text><text transform="matrix(1 0 0 1 20.6099 170.9998)"><tspan style="font-family:'Montserrat-Regular'; font-size:10px;" x="0" y="0"/><tspan style="font-family:'Montserrat-Regular'; font-size:10px;" x="15.29" y="0"/></text><text transform="matrix(1 0 0 1 118.2998 170.9998)"><tspan style="font-family:'Montserrat-Regular'; font-size:10px;" x="0" y="0"/><tspan style="font-family:'Montserrat-Regular'; font-size:10px;" x="6.92" y="0"/><tspan style="font-family:'Montserrat-Regular'; font-size:10px;" x="13.61" y="0"/></text><text transform="matrix(1 0 0 1 208.8901 170.9998)"><tspan style="font-family:'Montserrat-Regular'; font-size:10px;" x="0" y="0"/><tspan style="font-family:'Montserrat-Regular'; font-size:10px;" x="-3.875" y="12"/></text><text style="font-family:'Montserrat-Regular'; font-size:10px;" transform="matrix(1 0 0 1 -281.5347 266.9998)"/><text transform="matrix(1 0 0 1 -191.5947 266.9998)"><tspan style="font-family:'Montserrat-Regular'; font-size:10px;" x="0" y="0"/><tspan style="font-family:'Montserrat-Regular'; font-size:10px;" x="7.32" y="0"/><tspan style="font-family:'Montserrat-Regular'; font-size:10px;" x="42.58" y="0"/><tspan style="font-family:'Montserrat-Regular'; font-size:10px;" x="49.76" y="0"/></text><text transform="matrix(1 0 0 1 -101.5649 266.9998)"><tspan style="font-family:'Montserrat-Regular'; font-size:10px;" x="0" y="0"/><tspan style="font-family:'Montserrat-Regular'; font-size:10px;" x="21.17" y="0"/><tspan style="font-family:'Montserrat-Regular'; font-size:10px;" x="28.89" y="0"/><tspan style="font-family:'Montserrat-Regular'; font-size:10px;" x="38.939" y="0"/><tspan style="font-family:'Montserrat-Regular'; font-size:10px;" x="44.31" y="0"/><tspan style="font-family:'Montserrat-Regular'; font-size:10px;" x="62.649" y="0"/><tspan style="font-family:'Montserrat-Regular'; font-size:10px;" x="69.339" y="0"/><tspan style="font-family:'Montserrat-Regular'; font-size:10px;" x="22.855" y="12"/><tspan style="font-family:'Montserrat-Regular'; font-size:10px;" x="28.605" y="12"/><tspan style="font-family:'Montserrat-Regular'; font-size:10px;" x="36.425" y="12"/></text><text style="font-family:'Montserrat-Regular'; font-size:10px;" transform="matrix(1 0 0 1 21.2549 266.9998)"/><text transform="matrix(1 0 0 1 100.6655 266.9998)"><tspan style="font-family:'Montserrat-Regular'; font-size:10px;" x="0" y="0"/><tspan style="font-family:'Montserrat-Regular'; font-size:10px;" x="9.265" y="12"/><tspan style="font-family:'Montserrat-Regular'; font-size:10px;" x="31.654" y="12"/><tspan style="font-family:'Montserrat-Regular'; font-size:10px;" x="39.615" y="12"/></text><text style="font-family:'Montserrat-Regular'; font-size:10px;" transform="matrix(1 0 0 1 205.2202 266.9998)"/><text transform="matrix(1 0 0 1 -290.2148 362.9998)"><tspan style="font-family:'Montserrat-Regular'; font-size:10px;" x="0" y="0"/><tspan style="font-family:'Montserrat-Regular'; font-size:10px;" x="6.82" y="0"/></text><text style="font-family:'Montserrat-Regular'; font-size:10px;" transform="matrix(1 0 0 1 -171.5249 362.9998)"/><text transform="matrix(1 0 0 1 -80.6201 362.9998)"><tspan style="font-family:'Montserrat-Regular'; font-size:10px;" x="0" y="0"/><tspan style="font-family:'Montserrat-Regular'; font-size:10px;" x="6.22" y="0"/><tspan style="font-family:'Montserrat-Regular'; font-size:10px;" x="12.51" y="0"/><tspan style="font-family:'Montserrat-Regular'; font-size:10px;" x="19.71" y="0"/><tspan style="font-family:'Montserrat-Regular'; font-size:10px;" x="-21.344" y="12"/><tspan style="font-family:'Montserrat-Regular'; font-size:10px;" x="-8.994" y="12"/><tspan style="font-family:'Montserrat-Regular'; font-size:10px;" x="-2.104" y="12"/></text><text transform="matrix(1 0 0 1 15.3799 362.9998)"><tspan style="font-family:'Montserrat-Regular'; font-size:10px;" x="0" y="0"/><tspan style="font-family:'Montserrat-Regular'; font-size:10px;" x="6.22" y="0"/><tspan style="font-family:'Montserrat-Regular'; font-size:10px;" x="12.51" y="0"/><tspan style="font-family:'Montserrat-Regular'; font-size:10px;" x="19.71" y="0"/><tspan style="font-family:'Montserrat-Regular'; font-size:10px;" x="-0.16" y="12"/><tspan style="font-family:'Montserrat-Regular'; font-size:10px;" x="7.75" y="12"/><tspan style="font-family:'Montserrat-Regular'; font-size:10px;" x="15.71" y="12"/></text><text transform="matrix(1 0 0 1 111.3799 362.9998)"><tspan style="font-family:'Montserrat-Regular'; font-size:10px;" x="0" y="0"/><tspan style="font-family:'Montserrat-Regular'; font-size:10px;" x="6.22" y="0"/><tspan style="font-family:'Montserrat-Regular'; font-size:10px;" x="12.51" y="0"/><tspan style="font-family:'Montserrat-Regular'; font-size:10px;" x="19.71" y="0"/><tspan style="font-family:'Montserrat-Regular'; font-size:10px;" x="-8.28" y="12"/><tspan style="font-family:'Montserrat-Regular'; font-size:10px;" x="23.7" y="12"/><tspan style="font-family:'Montserrat-Regular'; font-size:10px;" x="28.8" y="12"/></text><text transform="matrix(1 0 0 1 207.3799 362.9998)"><tspan style="font-family:'Montserrat-Regular'; font-size:10px;" x="0" y="0"/><tspan style="font-family:'Montserrat-Regular'; font-size:10px;" x="6.22" y="0"/><tspan style="font-family:'Montserrat-Regular'; font-size:10px;" x="12.51" y="0"/><tspan style="font-family:'Montserrat-Regular'; font-size:10px;" x="19.71" y="0"/><tspan style="font-family:'Montserrat-Regular'; font-size:10px;" x="5.855" y="12"/><tspan style="font-family:'Montserrat-Regular'; font-size:10px;" x="12.775" y="12"/></text></g><g/><path d="M61.6,43.2l-7.925-5.944C51.892,26.904,42.854,19,32,19s-19.892,7.904-21.675,18.257L2.4,43.2  c-0.269,0.201-0.418,0.522-0.398,0.856c0.019,0.334,0.203,0.637,0.492,0.806l29,17C31.65,61.954,31.825,62,32,62  s0.35-0.046,0.506-0.137l29-17c0.289-0.169,0.474-0.472,0.492-0.806C62.018,43.722,61.868,43.401,61.6,43.2z M32,21  c11.028,0,20,8.972,20,20c0,3.863-8.036,8-20,8s-20-4.137-20-8C12,29.972,20.972,21,32,21z M32,59.841L4.803,43.898l5.223-3.918  C10.01,40.318,10,40.658,10,41c0,5.607,9.663,10,22,10s22-4.393,22-10c0-0.342-0.01-0.682-0.026-1.02l5.223,3.918L32,59.841z"/><rect height="2" width="2" x="31" y="24"/></svg>